<svg width="150" height="30" viewBox="0 0 179 30" fill="none" xmlns="http://www.w3.org/2000/svg">
<path d="M13.1143 23.1738C13.1143 23.3984 13.1338 23.6133 13.1729 23.8184C13.2217 24.0137 13.3096 24.1846 13.4365 24.3311C13.5732 24.4775 13.7539 24.5947 13.9785 24.6826C14.2129 24.7705 14.5156 24.8145 14.8867 24.8145C15.4238 24.8145 15.917 24.6631 16.3662 24.3604C16.8154 24.0479 17.2012 23.6523 17.5234 23.1738C17.8457 22.6855 18.0947 22.1436 18.2705 21.5479C18.4463 20.9424 18.5342 20.3418 18.5342 19.7461C18.5342 18.8574 18.4121 18.0762 18.168 17.4023C17.9336 16.7188 17.6016 16.1426 17.1719 15.6738C16.7422 15.2051 16.2344 14.8438 15.6484 14.5898C15.0625 14.3262 14.4277 14.1748 13.7441 14.1357L14.0371 13.3887C14.4668 13.4082 14.877 13.3496 15.2676 13.2129C15.6582 13.0762 16 12.8369 16.293 12.4951C16.5957 12.1533 16.835 11.6943 17.0107 11.1182C17.1865 10.5322 17.2744 9.7998 17.2744 8.9209C17.2744 8.3252 17.2012 7.78809 17.0547 7.30957C16.9082 6.83105 16.7129 6.43066 16.4688 6.1084C16.2344 5.77637 15.9561 5.52246 15.6338 5.34668C15.3213 5.1709 14.999 5.08301 14.667 5.08301C14.4619 5.08301 14.2617 5.10742 14.0664 5.15625C13.8809 5.20508 13.7148 5.28809 13.5684 5.40527C13.4316 5.52246 13.3193 5.67871 13.2314 5.87402C13.1533 6.05957 13.1143 6.29395 13.1143 6.57715V23.1738ZM13.4072 3.88184C16.2393 3.88184 18.3193 4.32617 19.6475 5.21484C20.9854 6.09375 21.6543 7.37793 21.6543 9.06738C21.6543 9.4873 21.6055 9.87305 21.5078 10.2246C21.4199 10.5762 21.3027 10.8984 21.1562 11.1914C21.0098 11.4746 20.8438 11.7285 20.6582 11.9531C20.4727 12.1777 20.2822 12.373 20.0869 12.5391C19.6279 12.9395 19.1104 13.252 18.5342 13.4766V13.6963C19.4424 13.8037 20.2578 14.0771 20.9805 14.5166C21.2832 14.7021 21.5811 14.9365 21.874 15.2197C22.167 15.4932 22.4258 15.8301 22.6504 16.2305C22.8848 16.6211 23.0703 17.0801 23.207 17.6074C23.3535 18.125 23.4268 18.7207 23.4268 19.3945C23.4268 20.4199 23.2412 21.3428 22.8701 22.1631C22.499 22.9834 21.9473 23.6816 21.2148 24.2578C20.4824 24.8242 19.5693 25.2588 18.4756 25.5615C17.3818 25.8643 16.1123 26.0156 14.667 26.0156C13.3291 26.0156 12.2402 25.9326 11.4004 25.7666C10.5605 25.6006 9.90625 25.3613 9.4375 25.0488C8.96875 24.7266 8.64648 24.3408 8.4707 23.8916C8.30469 23.4424 8.22168 22.9346 8.22168 22.3682V6.34277C8.22168 5.80566 7.85059 5.53711 7.1084 5.53711C6.57129 5.53711 6.02441 5.62012 5.46777 5.78613C4.9209 5.94238 4.42285 6.16211 3.97363 6.44531C3.53418 6.71875 3.17285 7.05078 2.88965 7.44141C2.60645 7.82227 2.46484 8.2373 2.46484 8.68652C2.46484 8.99902 2.50391 9.24805 2.58203 9.43359C2.66992 9.61914 2.76758 9.76074 2.875 9.8584C2.98242 9.94629 3.08984 10.0049 3.19727 10.0342C3.31445 10.0537 3.39746 10.0635 3.44629 10.0635C3.69043 10.0635 3.89062 10.0244 4.04688 9.94629C4.20312 9.8584 4.34473 9.77051 4.47168 9.68262C4.59863 9.58496 4.71582 9.49707 4.82324 9.41895C4.94043 9.33105 5.07227 9.28711 5.21875 9.28711C5.33594 9.28711 5.45801 9.31641 5.58496 9.375C5.72168 9.42383 5.84375 9.50684 5.95117 9.62402C6.06836 9.74121 6.16602 9.89746 6.24414 10.0928C6.32227 10.2783 6.36133 10.5078 6.36133 10.7812C6.36133 11.1719 6.2832 11.5088 6.12695 11.792C5.98047 12.0752 5.78516 12.3145 5.54102 12.5098C5.30664 12.6953 5.0332 12.8369 4.7207 12.9346C4.41797 13.0225 4.11523 13.0664 3.8125 13.0664C3.34375 13.0664 2.91895 12.9883 2.53809 12.832C2.16699 12.666 1.84961 12.4414 1.58594 12.1582C1.32227 11.875 1.12207 11.543 0.985352 11.1621C0.848633 10.7812 0.780273 10.376 0.780273 9.94629C0.780273 9.13574 0.931641 8.42285 1.23438 7.80762C1.53711 7.18262 1.96191 6.64551 2.50879 6.19629C3.06543 5.74707 3.72949 5.37598 4.50098 5.08301C5.27246 4.78027 6.12695 4.54102 7.06445 4.36523C8.00195 4.18945 9.00293 4.06738 10.0674 3.99902C11.1416 3.9209 12.2549 3.88184 13.4072 3.88184Z" fill="#FF8A00"/>
<path d="M31.665 16.0693C31.665 16.3818 31.709 16.7236 31.7969 17.0947C31.8945 17.4561 32.0312 17.8223 32.207 18.1934C32.3828 18.5645 32.5977 18.9209 32.8516 19.2627C33.1152 19.5947 33.4131 19.8926 33.7451 20.1562C34.0869 20.4199 34.4629 20.6299 34.873 20.7861C35.2832 20.9424 35.7324 21.0205 36.2207 21.0205C36.5625 21.0205 36.8799 20.9814 37.1729 20.9033C37.4658 20.8252 37.7393 20.7178 37.9932 20.5811C38.2471 20.4443 38.4912 20.2881 38.7256 20.1123C38.96 19.9268 39.1943 19.7314 39.4287 19.5264L39.7949 19.8779C39.5703 20.1807 39.2822 20.5127 38.9307 20.874C38.5791 21.2354 38.1543 21.5771 37.6562 21.8994C37.1582 22.2119 36.5771 22.4756 35.9131 22.6904C35.249 22.8955 34.4922 22.998 33.6426 22.998C32.793 22.998 31.9629 22.8467 31.1523 22.5439C30.3516 22.2314 29.6387 21.7676 29.0137 21.1523C28.3887 20.5371 27.8857 19.7705 27.5049 18.8525C27.1338 17.9346 26.9482 16.8604 26.9482 15.6299C26.9482 14.7412 27.0605 13.9258 27.2852 13.1836C27.5098 12.4414 27.8125 11.7725 28.1934 11.1768C28.584 10.5811 29.0332 10.0586 29.541 9.60938C30.0586 9.16016 30.6006 8.78906 31.167 8.49609C31.7334 8.19336 32.3096 7.96875 32.8955 7.82227C33.4912 7.66602 34.0625 7.58789 34.6094 7.58789C35.332 7.58789 35.9619 7.66602 36.499 7.82227C37.0361 7.97852 37.4805 8.18848 37.832 8.45215C38.1934 8.71582 38.4619 9.02344 38.6377 9.375C38.8135 9.7168 38.9014 10.0781 38.9014 10.459C38.9014 10.918 38.7695 11.333 38.5059 11.7041C38.2422 12.0654 37.8906 12.3828 37.4512 12.6562L31.665 16.0693ZM34.6094 13.0957C34.7363 13.0176 34.8389 12.9443 34.917 12.876C35.0049 12.7979 35.0732 12.71 35.1221 12.6123C35.1709 12.5049 35.2051 12.3779 35.2246 12.2314C35.2539 12.0752 35.2686 11.8848 35.2686 11.6602C35.2686 11.416 35.2393 11.1475 35.1807 10.8545C35.1318 10.5518 35.0439 10.2686 34.917 10.0049C34.79 9.74121 34.6289 9.52148 34.4336 9.3457C34.2383 9.16992 34.0039 9.08203 33.7305 9.08203C33.3789 9.08203 33.0762 9.18945 32.8223 9.4043C32.5781 9.60938 32.373 9.87793 32.207 10.21C32.0508 10.542 31.9238 10.9229 31.8262 11.3525C31.7383 11.7725 31.6699 12.1973 31.6211 12.627C31.5723 13.0566 31.543 13.4717 31.5332 13.8721C31.5234 14.2627 31.5186 14.5947 31.5186 14.8682L34.6094 13.0957Z" fill="white"/>
<path d="M49.8643 15.2051C49.8643 14.9609 49.7861 14.7754 49.6299 14.6484C49.4736 14.5215 49.2734 14.458 49.0293 14.458C48.6875 14.458 48.3604 14.5361 48.0479 14.6924C47.7451 14.8486 47.4766 15.0781 47.2422 15.3809C47.0078 15.6836 46.8223 16.0596 46.6855 16.5088C46.5488 16.9482 46.4805 17.4609 46.4805 18.0469C46.4805 18.6133 46.5195 19.082 46.5977 19.4531C46.6855 19.8242 46.7979 20.1221 46.9346 20.3467C47.0811 20.5615 47.2471 20.7129 47.4326 20.8008C47.6182 20.8887 47.8135 20.9326 48.0186 20.9326C48.2725 20.9326 48.5117 20.8691 48.7363 20.7422C48.9609 20.6055 49.1562 20.4346 49.3223 20.2295C49.4883 20.0244 49.6201 19.7949 49.7178 19.541C49.8154 19.2871 49.8643 19.0332 49.8643 18.7793V15.2051ZM47.5352 8.78906C47.2031 8.78906 46.8955 8.82812 46.6123 8.90625C46.3291 8.98438 46.085 9.08203 45.8799 9.19922C45.6748 9.31641 45.5137 9.44824 45.3965 9.59473C45.2793 9.73145 45.2207 9.86328 45.2207 9.99023C45.2207 10.1367 45.2939 10.2441 45.4404 10.3125C45.5967 10.3711 45.7676 10.4443 45.9531 10.5322C46.1387 10.6104 46.3047 10.7275 46.4512 10.8838C46.6074 11.0303 46.6855 11.2598 46.6855 11.5723C46.6855 11.7773 46.6416 11.9678 46.5537 12.1436C46.4756 12.3096 46.3633 12.4609 46.2168 12.5977C46.0801 12.7246 45.9141 12.8271 45.7188 12.9053C45.5332 12.9736 45.3379 13.0078 45.1328 13.0078C44.5859 13.0078 44.1416 12.8223 43.7998 12.4512C43.4678 12.0801 43.3018 11.5869 43.3018 10.9717C43.3018 10.376 43.458 9.86816 43.7705 9.44824C44.083 9.01855 44.4883 8.66699 44.9863 8.39355C45.4941 8.12012 46.0654 7.91992 46.7002 7.79297C47.335 7.65625 47.9697 7.58789 48.6045 7.58789C49.3662 7.58789 50.0938 7.6709 50.7871 7.83691C51.4805 8.00293 52.0908 8.2666 52.6182 8.62793C53.1553 8.98926 53.5801 9.44824 53.8926 10.0049C54.2148 10.5615 54.376 11.2354 54.376 12.0264V20.3027C54.376 20.3906 54.3809 20.4883 54.3906 20.5957C54.4004 20.7031 54.4248 20.8008 54.4639 20.8887C54.5029 20.9766 54.5615 21.0498 54.6396 21.1084C54.7178 21.167 54.8301 21.1963 54.9766 21.1963C55.1523 21.1963 55.3135 21.1328 55.46 21.0059C55.6162 20.8691 55.7529 20.7324 55.8701 20.5957L56.2363 20.9033C56.0898 21.1084 55.9141 21.333 55.709 21.5771C55.5039 21.8213 55.2549 22.0508 54.9619 22.2656C54.6689 22.4805 54.3271 22.6611 53.9365 22.8076C53.5459 22.9541 53.1016 23.0273 52.6035 23.0273C51.9883 23.0273 51.4414 22.8467 50.9629 22.4854C50.4844 22.1143 50.1719 21.5479 50.0254 20.7861C49.7129 21.2061 49.3857 21.5576 49.0439 21.8408C48.7119 22.124 48.3701 22.3535 48.0186 22.5293C47.667 22.7051 47.3105 22.832 46.9492 22.9102C46.5977 22.9883 46.2412 23.0273 45.8799 23.0273C45.4111 23.0273 44.957 22.9541 44.5176 22.8076C44.0781 22.6611 43.6826 22.4316 43.3311 22.1191C42.9893 21.7969 42.7109 21.3818 42.4961 20.874C42.291 20.3662 42.1885 19.7461 42.1885 19.0137C42.1885 18.125 42.3643 17.3975 42.7158 16.8311C43.0674 16.2646 43.5264 15.791 44.0928 15.4102C44.6689 15.0195 45.3184 14.6875 46.041 14.4141C46.7734 14.1406 47.5205 13.8525 48.2822 13.5498C48.8486 13.3252 49.2588 12.9932 49.5127 12.5537C49.7764 12.1045 49.9082 11.6455 49.9082 11.1768C49.9082 10.4541 49.6934 9.87793 49.2637 9.44824C48.8438 9.00879 48.2676 8.78906 47.5352 8.78906Z" fill="white"/>
<path d="M72.5166 20.2441C72.5166 20.332 72.5215 20.4297 72.5312 20.5371C72.541 20.6348 72.5654 20.7324 72.6045 20.8301C72.6436 20.918 72.7021 20.9912 72.7803 21.0498C72.8584 21.1084 72.9707 21.1377 73.1172 21.1377C73.3027 21.1377 73.4688 21.0742 73.6152 20.9473C73.7617 20.8105 73.8984 20.6738 74.0254 20.5371L74.377 20.8447C74.2305 21.0498 74.0449 21.2793 73.8203 21.5332C73.6055 21.7773 73.3418 22.0117 73.0293 22.2363C72.7168 22.4609 72.3604 22.6465 71.96 22.793C71.5596 22.9492 71.1055 23.0273 70.5977 23.0273C70.168 23.0273 69.792 22.9688 69.4697 22.8516C69.1572 22.7441 68.8887 22.5977 68.6641 22.4121C68.4492 22.2168 68.2881 21.9922 68.1807 21.7383C68.0732 21.4746 68.0195 21.1963 68.0195 20.9033V20.2441C67.5312 20.7715 67.0186 21.2354 66.4814 21.6357C66.2471 21.8115 65.998 21.9824 65.7344 22.1484C65.4707 22.3145 65.1973 22.4658 64.9141 22.6025C64.6309 22.7295 64.3379 22.832 64.0352 22.9102C63.7324 22.9883 63.4297 23.0273 63.127 23.0273C62.541 23.0273 62.0381 22.9248 61.6182 22.7197C61.208 22.5049 60.876 22.2266 60.6221 21.8848C60.3682 21.543 60.1826 21.1572 60.0654 20.7275C59.9482 20.2979 59.8896 19.8682 59.8896 19.4385V10.3711C59.8896 10.2832 59.8848 10.1904 59.875 10.0928C59.8652 9.98535 59.8408 9.8877 59.8018 9.7998C59.7627 9.70215 59.7041 9.62402 59.626 9.56543C59.5479 9.50684 59.4355 9.47754 59.2891 9.47754C59.1133 9.47754 58.9473 9.5459 58.791 9.68262C58.6445 9.80957 58.5127 9.94141 58.3955 10.0781L58.0293 9.77051C58.1758 9.56543 58.3564 9.34082 58.5713 9.09668C58.7959 8.84277 59.0645 8.60352 59.377 8.37891C59.6895 8.1543 60.0459 7.96875 60.4463 7.82227C60.8564 7.66602 61.3105 7.58789 61.8086 7.58789C62.2383 7.58789 62.6143 7.64648 62.9365 7.76367C63.2588 7.87109 63.5273 8.02246 63.7422 8.21777C63.957 8.40332 64.1182 8.62793 64.2256 8.8916C64.333 9.14551 64.3867 9.41895 64.3867 9.71191V19.4971C64.3867 19.6338 64.4062 19.7754 64.4453 19.9219C64.4941 20.0586 64.5576 20.1855 64.6357 20.3027C64.7236 20.4199 64.8311 20.5176 64.958 20.5957C65.085 20.6641 65.2363 20.6982 65.4121 20.6982C65.6953 20.6982 65.9785 20.625 66.2617 20.4785C66.5449 20.332 66.8037 20.1611 67.0381 19.9658C67.2725 19.7607 67.4727 19.5605 67.6387 19.3652C67.8145 19.1699 67.9414 19.0234 68.0195 18.9258V10.3711C68.0195 10.2832 68.0146 10.1904 68.0049 10.0928C67.9951 9.98535 67.9707 9.8877 67.9316 9.7998C67.8926 9.70215 67.834 9.62402 67.7559 9.56543C67.6777 9.50684 67.5654 9.47754 67.4189 9.47754C67.2432 9.47754 67.0771 9.5459 66.9209 9.68262C66.7744 9.80957 66.6426 9.94141 66.5254 10.0781L66.1592 9.77051C66.3057 9.56543 66.4863 9.34082 66.7012 9.09668C66.9258 8.84277 67.1943 8.60352 67.5068 8.37891C67.8193 8.1543 68.1758 7.96875 68.5762 7.82227C68.9863 7.66602 69.4404 7.58789 69.9385 7.58789C70.3682 7.58789 70.7441 7.64648 71.0664 7.76367C71.3887 7.87109 71.6572 8.02246 71.8721 8.21777C72.0869 8.40332 72.248 8.62793 72.3555 8.8916C72.4629 9.14551 72.5166 9.41895 72.5166 9.71191V20.2441Z" fill="white"/>
<path d="M82.6299 8.84766V19.6729C82.6299 20.1904 82.7275 20.5518 82.9229 20.7568C83.1182 20.9521 83.3867 21.0498 83.7285 21.0498C83.9922 21.0498 84.2266 20.9766 84.4316 20.8301C84.6367 20.6836 84.8125 20.5176 84.959 20.332C85.1348 20.127 85.2861 19.8877 85.4131 19.6143L85.8672 19.8193C85.7207 20.1318 85.5449 20.4736 85.3398 20.8447C85.1445 21.2158 84.8809 21.5625 84.5488 21.8848C84.2168 22.1973 83.7969 22.4609 83.2891 22.6758C82.791 22.8906 82.1611 22.998 81.3994 22.998C80.9697 22.998 80.5547 22.9346 80.1543 22.8076C79.7637 22.6807 79.4121 22.4805 79.0996 22.207C78.7969 21.9336 78.5527 21.5918 78.3672 21.1816C78.1816 20.7715 78.0889 20.2783 78.0889 19.7021V8.84766H76.4482V7.79297C76.7217 7.79297 77.1025 7.72461 77.5908 7.58789C78.0791 7.44141 78.5771 7.20215 79.085 6.87012C79.6025 6.53809 80.0811 6.09375 80.5205 5.53711C80.96 4.98047 81.2725 4.29199 81.458 3.47168H82.6299V7.79297H85.0176C85.7988 7.79297 86.1895 7.66113 86.1895 7.39746C86.1895 7.2998 86.1406 7.23633 86.043 7.20703C85.9453 7.16797 85.833 7.12402 85.7061 7.0752C85.5889 7.0166 85.4814 6.93848 85.3838 6.84082C85.2861 6.74316 85.2373 6.58203 85.2373 6.35742C85.2373 6.08398 85.3203 5.86914 85.4863 5.71289C85.6621 5.55664 85.8867 5.47852 86.1602 5.47852C86.3359 5.47852 86.4873 5.51758 86.6143 5.5957C86.751 5.66406 86.8633 5.76172 86.9512 5.88867C87.0391 6.00586 87.1025 6.14258 87.1416 6.29883C87.1904 6.45508 87.2148 6.61133 87.2148 6.76758C87.2148 7.40234 87.0293 7.91016 86.6582 8.29102C86.2969 8.66211 85.7109 8.84766 84.9004 8.84766H82.6299Z" fill="white"/>
<path d="M101.166 9.8877C101.166 11.6748 100.99 13.4033 100.639 15.0732C100.297 16.7334 99.8184 18.2959 99.2031 19.7607C98.5977 21.2158 97.875 22.5439 97.0352 23.7451C96.1953 24.9561 95.2822 25.9912 94.2959 26.8506C93.3096 27.71 92.2646 28.3789 91.1611 28.8574C90.0674 29.3359 88.959 29.5752 87.8359 29.5752C86.9766 29.5752 86.3125 29.4287 85.8438 29.1357C85.375 28.8525 85.1406 28.4668 85.1406 27.9785C85.1406 27.793 85.1699 27.6123 85.2285 27.4365C85.2871 27.2607 85.3652 27.1045 85.4629 26.9678C85.5605 26.8311 85.6777 26.7188 85.8145 26.6309C85.9512 26.5527 86.0977 26.5137 86.2539 26.5137C86.4395 26.5137 86.5957 26.6064 86.7227 26.792C86.8398 26.9775 86.9668 27.1777 87.1035 27.3926C87.2402 27.6172 87.4062 27.8223 87.6016 28.0078C87.7969 28.1934 88.0654 28.2861 88.4072 28.2861C88.8467 28.2861 89.3057 28.208 89.7842 28.0518C90.2627 27.9053 90.7412 27.6904 91.2197 27.4072C91.708 27.124 92.1914 26.7773 92.6699 26.3672C93.1582 25.9668 93.6367 25.5176 94.1055 25.0195C93.832 24.0332 93.5146 22.959 93.1533 21.7969C92.8018 20.625 92.4258 19.4482 92.0254 18.2666C91.6348 17.085 91.2295 15.9473 90.8096 14.8535C90.3994 13.75 89.9941 12.7734 89.5938 11.9238C89.2031 11.0742 88.8223 10.3955 88.4512 9.8877C88.0898 9.37012 87.7676 9.11133 87.4844 9.11133C87.2988 9.11133 87.1572 9.14062 87.0596 9.19922C86.9521 9.25781 86.8301 9.34082 86.6934 9.44824L86.4004 9.08203C86.5957 8.91602 86.8008 8.74512 87.0156 8.56934C87.2305 8.39355 87.4844 8.23242 87.7773 8.08594C88.0703 7.93945 88.4121 7.82227 88.8027 7.73438C89.1934 7.63672 89.6621 7.58789 90.209 7.58789C90.8047 7.58789 91.3564 7.72461 91.8643 7.99805C92.3818 8.26172 92.8506 8.75488 93.2705 9.47754C93.5732 10.0146 93.8857 10.6592 94.208 11.4111C94.54 12.1631 94.8721 13.0029 95.2041 13.9307C95.5361 14.8584 95.8682 15.8643 96.2002 16.9482C96.542 18.0225 96.8838 19.1504 97.2256 20.332C97.8311 19.0625 98.3193 17.7197 98.6904 16.3037C99.0615 14.8779 99.2471 13.4131 99.2471 11.9092C99.2471 11.3721 99.2129 10.9131 99.1445 10.5322C99.0762 10.1514 98.998 9.8291 98.9102 9.56543C98.8223 9.29199 98.7441 9.0625 98.6758 8.87695C98.6074 8.68164 98.5732 8.51074 98.5732 8.36426C98.5732 8.21777 98.6318 8.0957 98.749 7.99805C98.8662 7.89062 99.0078 7.80762 99.1738 7.74902C99.3398 7.69043 99.5059 7.65137 99.6719 7.63184C99.8477 7.60254 99.9941 7.58789 100.111 7.58789C100.375 7.58789 100.575 7.6416 100.712 7.74902C100.858 7.85645 100.966 8.0127 101.034 8.21777C101.103 8.41309 101.142 8.65234 101.151 8.93555C101.161 9.21875 101.166 9.53613 101.166 9.8877Z" fill="white"/>
<path d="M109.961 24.917C110.352 24.917 110.737 24.8438 111.118 24.6973C111.499 24.5605 111.836 24.3262 112.129 23.9941C112.432 23.6719 112.676 23.2471 112.861 22.7197C113.047 22.1924 113.14 21.5479 113.14 20.7861C113.14 19.9658 112.935 19.1699 112.524 18.3984C112.124 17.627 111.616 16.8701 111.001 16.1279C110.396 15.376 109.736 14.6338 109.023 13.9014C108.32 13.1592 107.661 12.4072 107.046 11.6455C106.44 10.874 105.933 10.083 105.522 9.27246C105.122 8.45215 104.922 7.59766 104.922 6.70898C104.922 5.82031 105.083 5.01953 105.405 4.30664C105.737 3.58398 106.182 2.97363 106.738 2.47559C107.305 1.96777 107.959 1.57715 108.701 1.30371C109.453 1.03027 110.254 0.893555 111.104 0.893555C112.012 0.893555 112.817 0.991211 113.521 1.18652C114.233 1.37207 114.834 1.63086 115.322 1.96289C115.82 2.28516 116.196 2.6709 116.45 3.12012C116.704 3.55957 116.831 4.02832 116.831 4.52637C116.831 4.76074 116.797 5.00488 116.729 5.25879C116.66 5.50293 116.553 5.72754 116.406 5.93262C116.26 6.1377 116.074 6.30859 115.85 6.44531C115.625 6.58203 115.361 6.65039 115.059 6.65039C114.697 6.65039 114.429 6.54297 114.253 6.32812C114.087 6.10352 113.96 5.83008 113.872 5.50781C113.794 5.18555 113.726 4.83398 113.667 4.45312C113.608 4.0625 113.516 3.70605 113.389 3.38379C113.262 3.06152 113.071 2.79297 112.817 2.57812C112.563 2.35352 112.192 2.24121 111.704 2.24121C111.44 2.24121 111.177 2.2998 110.913 2.41699C110.659 2.53418 110.425 2.71484 110.21 2.95898C110.005 3.19336 109.839 3.49609 109.712 3.86719C109.585 4.23828 109.521 4.67773 109.521 5.18555C109.521 5.77148 109.644 6.34277 109.888 6.89941C110.132 7.45605 110.454 8.00781 110.854 8.55469C111.255 9.0918 111.709 9.63379 112.217 10.1807C112.734 10.7178 113.257 11.2646 113.784 11.8213C114.321 12.3682 114.844 12.9346 115.352 13.5205C115.869 14.0967 116.328 14.6973 116.729 15.3223C117.129 15.9473 117.451 16.6016 117.695 17.2852C117.939 17.9688 118.062 18.6865 118.062 19.4385C118.062 20.542 117.847 21.5283 117.417 22.3975C116.997 23.2568 116.421 23.9795 115.688 24.5654C114.966 25.1611 114.116 25.6152 113.14 25.9277C112.163 26.2402 111.123 26.3965 110.02 26.3965C109.023 26.3965 108.14 26.2695 107.368 26.0156C106.606 25.7715 105.962 25.4443 105.435 25.0342C104.907 24.624 104.507 24.1553 104.233 23.6279C103.97 23.1104 103.838 22.5732 103.838 22.0166C103.838 21.7822 103.872 21.5332 103.94 21.2695C104.019 20.9961 104.126 20.7471 104.263 20.5225C104.409 20.2979 104.59 20.1123 104.805 19.9658C105.02 19.8096 105.269 19.7314 105.552 19.7314C105.845 19.7314 106.079 19.8047 106.255 19.9512C106.44 20.0977 106.587 20.293 106.694 20.5371C106.802 20.7812 106.89 21.0596 106.958 21.3721C107.026 21.6846 107.1 22.002 107.178 22.3242C107.256 22.6465 107.354 22.9639 107.471 23.2764C107.588 23.5889 107.749 23.8672 107.954 24.1113C108.159 24.3555 108.423 24.5508 108.745 24.6973C109.067 24.8438 109.473 24.917 109.961 24.917Z" fill="#FF8A00"/>
<path d="M128.937 15.2051C128.937 14.9609 128.858 14.7754 128.702 14.6484C128.546 14.5215 128.346 14.458 128.102 14.458C127.76 14.458 127.433 14.5361 127.12 14.6924C126.817 14.8486 126.549 15.0781 126.314 15.3809C126.08 15.6836 125.895 16.0596 125.758 16.5088C125.621 16.9482 125.553 17.4609 125.553 18.0469C125.553 18.6133 125.592 19.082 125.67 19.4531C125.758 19.8242 125.87 20.1221 126.007 20.3467C126.153 20.5615 126.319 20.7129 126.505 20.8008C126.69 20.8887 126.886 20.9326 127.091 20.9326C127.345 20.9326 127.584 20.8691 127.809 20.7422C128.033 20.6055 128.229 20.4346 128.395 20.2295C128.561 20.0244 128.692 19.7949 128.79 19.541C128.888 19.2871 128.937 19.0332 128.937 18.7793V15.2051ZM126.607 8.78906C126.275 8.78906 125.968 8.82812 125.685 8.90625C125.401 8.98438 125.157 9.08203 124.952 9.19922C124.747 9.31641 124.586 9.44824 124.469 9.59473C124.352 9.73145 124.293 9.86328 124.293 9.99023C124.293 10.1367 124.366 10.2441 124.513 10.3125C124.669 10.3711 124.84 10.4443 125.025 10.5322C125.211 10.6104 125.377 10.7275 125.523 10.8838C125.68 11.0303 125.758 11.2598 125.758 11.5723C125.758 11.7773 125.714 11.9678 125.626 12.1436C125.548 12.3096 125.436 12.4609 125.289 12.5977C125.152 12.7246 124.986 12.8271 124.791 12.9053C124.605 12.9736 124.41 13.0078 124.205 13.0078C123.658 13.0078 123.214 12.8223 122.872 12.4512C122.54 12.0801 122.374 11.5869 122.374 10.9717C122.374 10.376 122.53 9.86816 122.843 9.44824C123.155 9.01855 123.561 8.66699 124.059 8.39355C124.566 8.12012 125.138 7.91992 125.772 7.79297C126.407 7.65625 127.042 7.58789 127.677 7.58789C128.438 7.58789 129.166 7.6709 129.859 7.83691C130.553 8.00293 131.163 8.2666 131.69 8.62793C132.228 8.98926 132.652 9.44824 132.965 10.0049C133.287 10.5615 133.448 11.2354 133.448 12.0264V20.3027C133.448 20.3906 133.453 20.4883 133.463 20.5957C133.473 20.7031 133.497 20.8008 133.536 20.8887C133.575 20.9766 133.634 21.0498 133.712 21.1084C133.79 21.167 133.902 21.1963 134.049 21.1963C134.225 21.1963 134.386 21.1328 134.532 21.0059C134.688 20.8691 134.825 20.7324 134.942 20.5957L135.309 20.9033C135.162 21.1084 134.986 21.333 134.781 21.5771C134.576 21.8213 134.327 22.0508 134.034 22.2656C133.741 22.4805 133.399 22.6611 133.009 22.8076C132.618 22.9541 132.174 23.0273 131.676 23.0273C131.061 23.0273 130.514 22.8467 130.035 22.4854C129.557 22.1143 129.244 21.5479 129.098 20.7861C128.785 21.2061 128.458 21.5576 128.116 21.8408C127.784 22.124 127.442 22.3535 127.091 22.5293C126.739 22.7051 126.383 22.832 126.021 22.9102C125.67 22.9883 125.313 23.0273 124.952 23.0273C124.483 23.0273 124.029 22.9541 123.59 22.8076C123.15 22.6611 122.755 22.4316 122.403 22.1191C122.062 21.7969 121.783 21.3818 121.568 20.874C121.363 20.3662 121.261 19.7461 121.261 19.0137C121.261 18.125 121.437 17.3975 121.788 16.8311C122.14 16.2646 122.599 15.791 123.165 15.4102C123.741 15.0195 124.391 14.6875 125.113 14.4141C125.846 14.1406 126.593 13.8525 127.354 13.5498C127.921 13.3252 128.331 12.9932 128.585 12.5537C128.849 12.1045 128.98 11.6455 128.98 11.1768C128.98 10.4541 128.766 9.87793 128.336 9.44824C127.916 9.00879 127.34 8.78906 126.607 8.78906Z" fill="white"/>
<path d="M143.312 21.5039C143.312 21.6309 143.288 21.7822 143.239 21.958C143.2 22.1338 143.098 22.2998 142.932 22.4561C142.775 22.6123 142.541 22.7441 142.229 22.8516C141.926 22.9688 141.516 23.0273 140.998 23.0273C140.48 23.0273 140.075 22.9639 139.782 22.8369C139.489 22.7197 139.27 22.5781 139.123 22.4121C138.986 22.2461 138.898 22.0752 138.859 21.8994C138.83 21.7236 138.815 21.582 138.815 21.4746V2.57812C138.815 2.29492 138.747 2.05078 138.61 1.8457C138.483 1.63086 138.264 1.52344 137.951 1.52344C137.785 1.52344 137.639 1.55273 137.512 1.61133C137.395 1.66016 137.268 1.73828 137.131 1.8457L136.838 1.49414C137.062 1.30859 137.312 1.12793 137.585 0.952148C137.858 0.766602 138.156 0.605469 138.479 0.46875C138.811 0.332031 139.162 0.219727 139.533 0.131836C139.904 0.0439453 140.295 0 140.705 0C141.34 0 141.833 0.0878906 142.185 0.263672C142.536 0.429688 142.795 0.639648 142.961 0.893555C143.127 1.1377 143.225 1.40137 143.254 1.68457C143.293 1.95801 143.312 2.20215 143.312 2.41699V21.5039Z" fill="white"/>
<path d="M147.581 15.293C147.581 14.0137 147.767 12.8955 148.138 11.9385C148.509 10.9717 149.002 10.166 149.617 9.52148C150.242 8.87695 150.965 8.39355 151.785 8.07129C152.605 7.74902 153.465 7.58789 154.363 7.58789C155.262 7.58789 156.121 7.73926 156.941 8.04199C157.762 8.33496 158.479 8.78906 159.095 9.4043C159.72 10.0195 160.218 10.8008 160.589 11.748C160.96 12.6855 161.146 13.7988 161.146 15.0879C161.146 16.3672 160.96 17.5 160.589 18.4863C160.218 19.4727 159.72 20.3027 159.095 20.9766C158.479 21.6504 157.762 22.1631 156.941 22.5146C156.121 22.8564 155.262 23.0273 154.363 23.0273C153.465 23.0273 152.605 22.8662 151.785 22.5439C150.965 22.2119 150.242 21.7236 149.617 21.0791C149.002 20.4346 148.509 19.6289 148.138 18.6621C147.767 17.6953 147.581 16.5723 147.581 15.293ZM156.59 15.1465C156.59 14.3652 156.561 13.6133 156.502 12.8906C156.453 12.1582 156.351 11.5088 156.194 10.9424C156.038 10.376 155.813 9.92676 155.521 9.59473C155.228 9.25293 154.842 9.08203 154.363 9.08203C153.885 9.08203 153.499 9.2627 153.206 9.62402C152.913 9.97559 152.688 10.4443 152.532 11.0303C152.376 11.6064 152.273 12.2656 152.225 13.0078C152.176 13.75 152.151 14.5117 152.151 15.293C152.151 16.0742 152.176 16.8408 152.225 17.5928C152.273 18.335 152.376 18.999 152.532 19.585C152.688 20.1709 152.913 20.6445 153.206 21.0059C153.499 21.3574 153.885 21.5332 154.363 21.5332C154.842 21.5332 155.228 21.3477 155.521 20.9766C155.813 20.6055 156.038 20.1172 156.194 19.5117C156.351 18.9062 156.453 18.2227 156.502 17.4609C156.561 16.6992 156.59 15.9277 156.59 15.1465Z" fill="white"/>
<path d="M174.013 15.498C174.013 14.2676 173.954 13.2861 173.837 12.5537C173.729 11.8115 173.583 11.25 173.397 10.8691C173.212 10.4785 173.007 10.2246 172.782 10.1074C172.558 9.98047 172.328 9.91699 172.094 9.91699C171.811 9.91699 171.557 9.99512 171.332 10.1514C171.117 10.2979 170.927 10.4688 170.761 10.6641C170.604 10.8594 170.468 11.0547 170.351 11.25C170.243 11.4453 170.15 11.5918 170.072 11.6895V21.4746C170.072 21.6016 170.053 21.7578 170.014 21.9434C169.975 22.1191 169.877 22.29 169.721 22.4561C169.574 22.6123 169.35 22.7441 169.047 22.8516C168.754 22.9688 168.349 23.0273 167.831 23.0273C167.313 23.0273 166.903 22.9639 166.601 22.8369C166.308 22.7197 166.083 22.5781 165.927 22.4121C165.771 22.2461 165.673 22.0752 165.634 21.8994C165.595 21.7236 165.575 21.582 165.575 21.4746V10.166C165.575 9.88281 165.507 9.63867 165.37 9.43359C165.243 9.21875 165.023 9.11133 164.711 9.11133C164.545 9.11133 164.403 9.14062 164.286 9.19922C164.169 9.25781 164.042 9.34082 163.905 9.44824L163.598 9.08203C163.822 8.89648 164.071 8.71582 164.345 8.54004C164.628 8.35449 164.931 8.19336 165.253 8.05664C165.575 7.91992 165.922 7.80762 166.293 7.71973C166.664 7.63184 167.055 7.58789 167.465 7.58789C168.1 7.58789 168.593 7.69531 168.944 7.91016C169.296 8.11523 169.555 8.36426 169.721 8.65723C169.887 8.9502 169.984 9.25781 170.014 9.58008C170.053 9.89258 170.072 10.1562 170.072 10.3711C170.434 9.85352 170.844 9.38965 171.303 8.97949C171.488 8.80371 171.693 8.63281 171.918 8.4668C172.152 8.30078 172.396 8.1543 172.65 8.02734C172.914 7.89062 173.188 7.7832 173.471 7.70508C173.764 7.62695 174.062 7.58789 174.364 7.58789C175.028 7.58789 175.614 7.71484 176.122 7.96875C176.64 8.22266 177.074 8.64746 177.426 9.24316C177.777 9.83887 178.046 10.6299 178.231 11.6162C178.417 12.5928 178.51 13.8086 178.51 15.2637C178.51 16.6797 178.383 17.9102 178.129 18.9551C177.875 20 177.543 20.8887 177.133 21.6211C176.723 22.3535 176.259 22.9492 175.741 23.4082C175.224 23.877 174.701 24.2432 174.174 24.5068C173.646 24.7705 173.139 24.9512 172.65 25.0488C172.172 25.1562 171.757 25.2148 171.405 25.2246L171.244 24.624C171.537 24.5557 171.806 24.4482 172.05 24.3018C172.304 24.1553 172.533 23.9404 172.738 23.6572C172.943 23.374 173.124 23.0176 173.28 22.5879C173.437 22.1484 173.568 21.6016 173.676 20.9473C173.793 20.293 173.876 19.5215 173.925 18.6328C173.983 17.7344 174.013 16.6895 174.013 15.498Z" fill="white"/>
</svg>
