<svg width="20" height="20" viewBox="0 0 20 20" fill="none" xmlns="http://www.w3.org/2000/svg">
<path d="M1.6817 5.81039C1.6817 4.4922 2.75029 3.42383 4.06826 3.42383C5.38624 3.42383 6.45482 4.49252 6.45482 5.81039C6.45482 7.12836 5.38624 8.19684 4.06826 8.19684C2.75029 8.19684 1.6817 7.12836 1.6817 5.81039ZM15.932 8.19684C17.2497 8.19684 18.3184 7.12836 18.3184 5.81039C18.3184 4.4922 17.2497 3.42383 15.932 3.42383C14.614 3.42383 13.5453 4.49252 13.5453 5.81039C13.5453 7.12836 14.614 8.19684 15.932 8.19684ZM20 10.8983V13.3757L19.9829 13.3754L19.8231 13.4565C19.7453 13.4963 18.5182 14.0964 16.3999 14.134C15.3373 15.5705 12.927 16.5763 10.1288 16.5763C7.32645 16.5763 4.91295 15.5676 3.85264 14.1273C3.38829 14.1085 2.88888 14.0621 2.35619 13.9789L1.70161 13.8594C1.21669 13.7608 0.709597 13.6339 0.177373 13.4678L0.00643449 13.4143L0 13.3757V10.8983C0 9.48328 0.968886 8.29287 2.27717 7.94731C2.74714 8.38574 3.37585 8.65649 4.06805 8.65649C4.76025 8.65649 5.38875 8.38574 5.85893 7.94731C6.40476 8.09152 6.88749 8.38659 7.26865 8.78008C8.13974 8.54049 9.10813 8.40561 10.1286 8.40561C11.0684 8.40561 11.9645 8.51928 12.7807 8.7243C13.1543 8.35795 13.62 8.08484 14.1407 7.94731C14.6109 8.38574 15.2393 8.65649 15.9316 8.65649C16.6237 8.65649 17.2523 8.38574 17.7225 7.94731C18.7397 8.21608 19.5493 8.99645 19.86 9.99536L19.9873 10.6292C19.9956 10.7178 20 10.8076 20 10.8983ZM15.7738 14.129C15.2929 14.1119 14.7749 14.0655 14.2201 13.979L13.5654 13.8594C13.0805 13.7604 12.5734 13.6337 12.0409 13.4674L11.8702 13.4139L11.8637 13.3754V10.8983C11.8637 10.2471 12.071 9.64524 12.4196 9.14964C11.7087 8.99384 10.9367 8.90743 10.1291 8.90743C9.23456 8.90743 8.38351 9.01265 7.61105 9.20186C7.77478 9.44478 7.90799 9.70966 7.99702 9.99532L8.1244 10.6292C8.13235 10.718 8.13663 10.8078 8.13663 10.8983V13.3756L8.11948 13.3754L7.95961 13.4565C7.88105 13.4962 6.63672 14.1055 4.48944 14.1348C5.54696 15.2859 7.6772 16.0747 10.1291 16.0747C12.5845 16.0748 14.7174 15.2832 15.7738 14.129Z" fill="#BEC2C9"/>
</svg>
