<svg width="20" height="20" viewBox="0 0 20 20" fill="none" xmlns="http://www.w3.org/2000/svg">
<g clip-path="url(#clip0_319_327)">
<path d="M19.5918 13.2653H19.3878V1.83673C19.3878 1.61131 19.205 1.42857 18.9796 1.42857H12.2449V0.408163C12.2449 0.182735 12.0622 0 11.8367 0H8.16327C7.93784 0 7.7551 0.182735 7.7551 0.408163V1.42857H1.02041C0.79498 1.42857 0.612245 1.61131 0.612245 1.83673V13.2653H0.408163C0.182735 13.2653 0 13.448 0 13.6735V15.102C0 15.3275 0.182735 15.5102 0.408163 15.5102H6.62604L4.54796 18.9737L5.24792 19.3937L7.57804 15.5102H9.59184V20H10.4082V15.5102H12.422L14.752 19.3937L15.452 18.9737L13.374 15.5102H19.5918C19.8173 15.5102 20 15.3275 20 15.102V13.6735C20 13.448 19.8173 13.2653 19.5918 13.2653ZM8.57143 0.816327H11.4286V1.42857H8.57143V0.816327ZM1.42857 2.2449H18.5714V13.2653H1.42857V2.2449ZM19.1837 14.6939H0.816327V14.0816H19.1837V14.6939Z" fill="#B7BBBF"/>
<path d="M6.93857 3.67334C4.68795 3.67334 2.85693 5.50436 2.85693 7.75497C2.85693 10.0056 4.68795 11.8366 6.93857 11.8366C9.18918 11.8366 11.0202 10.0056 11.0202 7.75497C11.0202 5.50436 9.18918 3.67334 6.93857 3.67334ZM6.93857 11.0203C5.13808 11.0203 3.67326 9.55546 3.67326 7.75497C3.67326 6.09277 4.92195 4.71771 6.5304 4.51607V7.75497C6.5304 7.9804 6.71314 8.16314 6.93857 8.16314H10.1775C9.97583 9.77158 8.60077 11.0203 6.93857 11.0203ZM7.34673 7.34681V4.51607C8.82134 4.70093 9.99261 5.8722 10.1775 7.34681H7.34673Z" fill="#B7BBBF"/>
<path d="M16.9387 5.30615H14.0815V6.12248H16.9387V5.30615Z" fill="#B7BBBF"/>
<path d="M16.9387 6.53076H14.0815V7.34709H16.9387V6.53076Z" fill="#B7BBBF"/>
<path d="M16.9387 7.75488H14.0815V8.57121H16.9387V7.75488Z" fill="#B7BBBF"/>
<path d="M15.9183 4.08154H14.0815V4.89787H15.9183V4.08154Z" fill="#B7BBBF"/>
<path d="M13.2654 4.89787V4.08154H11.4287C11.3204 4.08154 11.2166 4.12456 11.1401 4.20109L10.5278 4.81334L11.1051 5.3906L11.5977 4.89787H13.2654Z" fill="#B7BBBF"/>
<path d="M17.3467 9.5918H12.6528V10.4081H17.3467V9.5918Z" fill="#B7BBBF"/>
<path d="M17.3471 11.0205H11.4287V11.8368H17.3471V11.0205Z" fill="#B7BBBF"/>
</g>
<defs>
<clipPath id="clip0_319_327">
<rect width="20" height="20" fill="white"/>
</clipPath>
</defs>
</svg>
