<svg width="20" height="20" viewBox="0 0 20 20" fill="none" xmlns="http://www.w3.org/2000/svg">
<path fill-rule="evenodd" clip-rule="evenodd" d="M2.53778 9.72898C2.53778 13.788 5.48071 16.5529 8.7854 17.1252C9.16356 17.1906 9.41704 17.5502 9.35156 17.9285C9.28608 18.3066 8.92644 18.5601 8.54828 18.4946C4.66606 17.8224 1.14795 14.5502 1.14795 9.72898C1.14795 7.68007 2.08011 6.06988 3.16868 4.84498C3.94848 3.96752 4.84062 3.25508 5.55811 2.70931H3.37623C3.00804 2.70931 2.70956 2.41083 2.70956 2.04264C2.70956 1.67446 3.00804 1.37598 3.37623 1.37598H7.37623C7.74442 1.37598 8.0429 1.67446 8.0429 2.04264V6.04264C8.0429 6.41083 7.74442 6.70931 7.37623 6.70931C7.00804 6.70931 6.70956 6.41083 6.70956 6.04264V3.58188L6.70755 3.5834L6.70743 3.5835L6.70742 3.58351H6.7074C5.94544 4.15819 5.01428 4.86046 4.20755 5.76822C3.25486 6.84023 2.53778 8.13534 2.53778 9.72898ZM17.348 10.2709C17.348 6.25482 14.4675 3.50608 11.2053 2.89367C10.8281 2.82286 10.5797 2.45967 10.6505 2.08246C10.7213 1.70526 11.0845 1.45688 11.4617 1.5277C15.294 2.24716 18.7378 5.50135 18.7378 10.2709C18.7378 12.3198 17.8056 13.93 16.7171 15.1549C15.9372 16.0324 15.0451 16.7448 14.3276 17.2906H16.5096C16.8778 17.2906 17.1763 17.589 17.1763 17.9573C17.1763 18.3254 16.8778 18.624 16.5096 18.624H12.5096C12.1414 18.624 11.8429 18.3254 11.8429 17.9573V13.9573C11.8429 13.589 12.1414 13.2906 12.5096 13.2906C12.8777 13.2906 13.1762 13.589 13.1762 13.9573V16.418L13.1783 16.4164C13.9403 15.8417 14.8715 15.1394 15.6782 14.2317C16.631 13.1596 17.348 11.8645 17.348 10.2709Z" fill="#B7BBBF"/>
</svg>
